<svg xmlns="http://www.w3.org/2000/svg" width="24" height="24"><path d="M 0 0 L 24 0 L 24 24 L 0 24 Z" fill="transparent"></path><path d="M 20.321 11.962 C 20.32 11.738 20.225 11.524 20.058 11.373 L 14.23 5.563 C 14.037 5.37 13.853 5.3 13.643 5.3 C 13.44 5.294 13.243 5.371 13.098 5.514 C 12.954 5.657 12.874 5.853 12.878 6.056 C 12.878 6.266 12.948 6.469 13.088 6.61 L 15.058 8.613 L 18.547 11.795 L 18.723 11.355 L 15.893 11.18 L 4.773 11.18 C 4.316 11.18 4 11.505 4 11.962 C 4 12.419 4.316 12.744 4.773 12.744 L 15.892 12.744 L 18.722 12.569 L 18.546 12.138 L 15.056 15.311 L 13.088 17.315 C 12.948 17.446 12.877 17.657 12.877 17.868 C 12.877 18.308 13.211 18.624 13.642 18.624 C 13.852 18.624 14.037 18.545 14.212 18.378 L 20.058 12.551 C 20.225 12.401 20.32 12.187 20.321 11.962 Z" fill="rgb(0, 0, 0)"></path></svg>