<svg xmlns="http://www.w3.org/2000/svg" width="24" height="24"><path d="M 0 0 L 24 0 L 24 24 L 0 24 Z" fill="transparent"></path><path d="M 2.999 18.104 C 2.999 18.769 3.437 19.028 3.915 19.028 C 4.19 19.028 4.426 18.866 4.733 18.679 C 5.625 18.072 6.727 17.699 7.854 17.708 C 9.06 17.711 10.219 18.181 11.087 19.02 C 11.444 19.344 11.703 19.449 12.003 19.449 C 12.295 19.449 12.562 19.344 12.911 19.02 C 13.783 18.183 14.944 17.713 16.153 17.708 C 17.279 17.698 18.373 18.072 19.265 18.679 C 19.573 18.866 19.807 19.028 20.091 19.028 C 20.561 19.028 20.998 18.769 20.998 18.104 L 20.998 7.107 C 20.998 6.969 20.991 6.856 20.901 6.718 C 20.18 5.46 18.349 4.4 16.12 4.4 C 14.353 4.4 12.821 5.105 12.003 6.102 C 11.184 5.105 9.645 4.4 7.886 4.4 C 5.649 4.4 3.818 5.461 3.096 6.718 C 3.026 6.836 2.992 6.971 2.999 7.107 Z M 4.304 17.415 L 4.304 7.294 C 4.96 6.345 6.387 5.705 7.886 5.705 C 9.426 5.705 10.771 6.353 11.347 7.341 L 11.347 17.554 C 10.52 16.897 9.231 16.403 7.886 16.403 C 6.475 16.403 5.163 16.799 4.304 17.415 Z M 12.651 17.554 L 12.651 7.341 C 13.227 6.353 14.58 5.705 16.119 5.705 C 17.611 5.705 19.038 6.345 19.694 7.294 L 19.694 17.415 C 18.835 16.799 17.522 16.403 16.119 16.403 C 14.767 16.403 13.478 16.897 12.651 17.554 Z" fill="rgb(0, 0, 0)"></path></svg>