<svg xmlns="http://www.w3.org/2000/svg" width="24" height="24"><path d="M 0 2 L 24 2 L 24 26 L 0 26 Z" fill="transparent"></path><path d="M 12 3 C 16.971 3 21 7.029 21 12 C 21 16.971 16.971 21 12 21 C 7.029 21 3 16.971 3 12 C 3 7.029 7.029 3 12 3 Z M 10.084 14.895 C 10.103 15.086 10.218 15.21 10.399 15.21 L 13.625 15.21 C 13.826 15.21 13.95 15.086 13.96 14.895 C 14.151 11.468 15.477 11.039 15.477 9.062 C 15.477 7.277 13.95 5.874 12.012 5.874 C 10.084 5.874 8.566 7.23 8.566 9.014 C 8.566 10.99 9.874 11.468 10.084 14.895 Z M 13.531 16.528 C 13.753 16.527 13.935 16.349 13.94 16.126 C 13.935 15.904 13.753 15.726 13.531 15.724 L 10.515 15.724 C 10.294 15.724 10.113 15.907 10.113 16.126 C 10.114 16.347 10.293 16.526 10.514 16.527 Z M 12.022 17.873 C 12.738 17.873 13.263 17.539 13.32 17.033 L 10.724 17.033 C 10.771 17.539 11.305 17.874 12.022 17.874 Z" fill="rgb(0, 0, 0)"></path></svg>