<svg xmlns="http://www.w3.org/2000/svg" width="24" height="24"><path d="M 0 0 L 24 0 L 24 24 L 0 24 Z" fill="transparent"></path><path d="M 5.553 21 L 17.479 21 C 19.17 21 20.032 20.155 20.032 18.479 L 20.032 10.13 C 20.032 8.456 19.17 7.609 17.479 7.609 L 5.553 7.609 C 3.845 7.609 3 8.455 3 10.13 L 3 18.479 C 3 20.154 3.845 21 5.553 21 Z M 5.569 19.691 C 4.756 19.691 4.309 19.252 4.309 18.406 L 4.309 10.203 C 4.309 9.358 4.756 8.918 5.569 8.918 L 17.455 8.918 C 18.26 8.918 18.724 9.358 18.724 10.204 L 18.724 18.406 C 18.724 19.252 18.261 19.691 17.455 19.691 Z M 4.715 6.3 L 18.325 6.3 C 18.204 5.56 17.853 5.154 17.041 5.154 L 6 5.154 C 5.187 5.154 4.837 5.561 4.715 6.301 Z M 6.39 4.049 L 16.651 4.049 C 16.602 3.358 16.211 3 15.455 3 L 7.577 3 C 6.83 3 6.439 3.358 6.39 4.049 Z" fill="rgb(0, 0, 0)"></path></svg>