<svg xmlns="http://www.w3.org/2000/svg" width="23" height="23"><path d="M 0 0 L 23 0 L 23 23 L 0 23 Z" fill="transparent"></path><g transform="translate(3 4.758)"><path d="M 2.231 12.132 L 8.005 12.132 L 8.005 10.989 L 2.252 10.989 C 1.541 10.989 1.144 10.613 1.144 9.874 L 1.144 2.266 C 1.144 1.528 1.541 1.144 2.252 1.144 L 14.449 1.144 C 15.152 1.144 15.549 1.528 15.549 2.266 L 15.549 6.826 C 15.927 6.755 16.315 6.752 16.693 6.819 L 16.693 2.202 C 16.693 0.739 15.954 0 14.462 0 L 2.231 0 C 0.753 0 0 0.739 0 2.202 L 0 9.937 C 0 11.401 0.753 12.133 2.231 12.133 Z M 0.582 4.44 L 16.125 4.44 L 16.125 2.827 L 0.583 2.827 Z" fill="rgb(0, 0, 0)"></path><path d="M 9.426 12.829 C 9.711 12.829 9.895 12.644 9.895 12.367 L 9.895 8.254 C 9.895 7.963 9.696 7.764 9.391 7.764 C 9.235 7.764 9.121 7.807 8.943 7.928 L 7.871 8.623 C 7.701 8.73 7.622 8.865 7.622 9.029 C 7.622 9.256 7.8 9.419 8.035 9.419 C 8.127 9.419 8.212 9.391 8.304 9.327 L 8.937 8.929 L 8.979 8.929 L 8.979 12.367 C 8.979 12.644 9.164 12.829 9.426 12.829 Z M 10.975 12.764 L 13.646 12.764 C 13.894 12.764 14.079 12.587 14.079 12.346 C 14.084 12.229 14.04 12.115 13.958 12.032 C 13.876 11.948 13.763 11.902 13.646 11.905 L 11.955 11.905 L 11.955 11.87 L 12.886 10.947 C 13.674 10.172 13.923 9.746 13.923 9.207 C 13.923 8.368 13.198 7.736 12.225 7.736 C 11.465 7.736 10.819 8.169 10.606 8.794 C 10.566 8.901 10.544 9.014 10.542 9.128 C 10.535 9.242 10.577 9.353 10.657 9.434 C 10.737 9.515 10.847 9.559 10.961 9.554 C 11.181 9.554 11.316 9.447 11.38 9.207 C 11.394 9.15 11.408 9.1 11.43 9.05 C 11.571 8.751 11.863 8.581 12.225 8.581 C 12.651 8.581 13 8.886 13 9.241 C 13 9.561 12.857 9.781 12.254 10.378 L 10.748 11.877 C 10.585 12.034 10.521 12.168 10.521 12.332 C 10.521 12.587 10.705 12.765 10.975 12.765 Z M 16.139 12.836 C 17.212 12.836 18 12.19 18 11.309 C 18 10.634 17.531 10.116 16.885 10.051 L 16.885 10.3 C 17.461 10.13 17.801 9.682 17.801 9.107 C 17.801 8.311 17.098 7.736 16.132 7.736 C 15.401 7.736 14.797 8.069 14.548 8.603 C 14.483 8.738 14.449 8.886 14.449 9.029 C 14.449 9.277 14.618 9.447 14.867 9.447 C 15.088 9.447 15.216 9.348 15.28 9.135 C 15.401 8.78 15.684 8.581 16.111 8.581 C 16.594 8.581 16.885 8.815 16.885 9.185 C 16.885 9.569 16.573 9.81 16.082 9.81 L 15.727 9.81 C 15.486 9.81 15.315 9.988 15.315 10.222 C 15.315 10.457 15.486 10.627 15.727 10.627 L 16.089 10.627 C 16.715 10.627 17.055 10.869 17.055 11.309 C 17.055 11.714 16.693 11.984 16.146 11.984 C 15.656 11.984 15.315 11.777 15.202 11.43 C 15.137 11.217 14.996 11.117 14.782 11.117 C 14.527 11.117 14.342 11.295 14.342 11.55 C 14.342 11.685 14.378 11.834 14.449 11.963 C 14.748 12.516 15.351 12.835 16.139 12.835 Z" fill="rgb(0, 0, 0)"></path></g></svg>