<svg xmlns="http://www.w3.org/2000/svg" width="24" height="24"><path d="M 0 0 L 24 0 L 24 24 L 0 24 Z" fill="transparent"></path><path d="M 6.876 19.836 L 17.078 19.836 C 18.148 19.836 18.775 19.224 18.775 18.169 L 18.775 9.837 L 17.561 9.007 L 17.561 17.86 C 17.561 18.349 17.297 18.621 16.821 18.621 L 7.132 18.621 C 6.65 18.621 6.385 18.35 6.385 17.86 L 6.385 9.015 L 5.171 9.837 L 5.171 18.169 C 5.171 19.224 5.798 19.835 6.876 19.835 Z M 3 11.442 C 3 11.751 3.241 12.045 3.649 12.045 C 3.86 12.045 4.033 11.932 4.192 11.804 L 11.74 5.47 C 11.905 5.319 12.109 5.319 12.274 5.47 L 19.822 11.806 C 19.973 11.935 20.147 12.047 20.358 12.047 C 20.712 12.047 20.999 11.828 20.999 11.466 C 21.008 11.268 20.921 11.077 20.765 10.954 L 12.915 4.356 C 12.357 3.881 11.664 3.881 11.098 4.356 L 3.241 10.952 C 3.09 11.071 3.002 11.251 3 11.443 Z M 16.881 8.041 L 18.775 9.64 L 18.775 6.156 C 18.775 5.824 18.564 5.613 18.232 5.613 L 17.425 5.613 C 17.101 5.613 16.882 5.824 16.882 6.156 Z" fill="rgb(0, 0, 0)"></path></svg>