<svg xmlns="http://www.w3.org/2000/svg" width="24" height="24"><path d="M 0 0 L 24 0 L 24 24 L 0 24 Z" fill="transparent"></path><path d="M 5.352 18.172 C 5.352 19.22 5.986 19.838 7.049 19.838 L 16.965 19.838 C 18.028 19.838 18.655 19.221 18.655 18.172 L 18.655 12.2 L 12.454 7.004 C 12.168 6.763 11.829 6.771 11.55 7.004 L 5.352 12.2 Z M 3 11.446 C 3 11.755 3.241 12.049 3.649 12.049 C 3.86 12.049 4.033 11.936 4.192 11.808 L 11.74 5.474 C 11.905 5.323 12.109 5.323 12.274 5.474 L 19.822 11.809 C 19.973 11.938 20.147 12.05 20.358 12.05 C 20.712 12.05 20.999 11.831 20.999 11.469 C 21.008 11.271 20.921 11.08 20.765 10.957 L 12.915 4.359 C 12.357 3.884 11.664 3.884 11.098 4.359 L 3.241 10.955 C 3.09 11.074 3.002 11.254 3 11.446 Z M 16.761 8.045 L 18.654 9.643 L 18.654 6.16 C 18.654 5.828 18.443 5.617 18.111 5.617 L 17.304 5.617 C 16.98 5.617 16.761 5.828 16.761 6.16 Z" fill="rgb(0, 0, 0)"></path></svg>