<svg xmlns="http://www.w3.org/2000/svg" width="24" height="24"><path d="M 0 0 L 24 0 L 24 24 L 0 24 Z" fill="transparent"></path><path d="M 5.217 11.319 C 5.217 14.777 7.501 17.201 10.861 17.483 L 10.861 19.538 L 7.59 19.538 C 7.412 19.538 7.241 19.608 7.116 19.734 C 6.99 19.86 6.919 20.03 6.919 20.208 C 6.919 20.579 7.22 20.87 7.589 20.87 L 15.464 20.87 C 15.641 20.872 15.811 20.803 15.937 20.678 C 16.063 20.554 16.134 20.384 16.134 20.207 C 16.134 19.838 15.834 19.538 15.464 19.538 L 12.193 19.538 L 12.193 17.483 C 15.561 17.201 17.836 14.777 17.836 11.319 L 17.836 9.529 C 17.836 9.158 17.545 8.867 17.175 8.867 C 16.998 8.865 16.827 8.934 16.701 9.058 C 16.575 9.183 16.504 9.352 16.504 9.529 L 16.504 11.266 C 16.504 14.274 14.547 16.266 11.531 16.266 C 8.506 16.266 6.549 14.274 6.549 11.266 L 6.549 9.529 C 6.549 9.158 6.258 8.867 5.879 8.867 C 5.702 8.866 5.533 8.935 5.409 9.059 C 5.284 9.184 5.215 9.353 5.217 9.529 Z M 11.531 14.37 C 13.286 14.37 14.468 13.056 14.468 11.179 L 14.468 5.279 C 14.468 3.391 13.286 2.087 11.531 2.087 C 9.767 2.087 8.585 3.391 8.585 5.279 L 8.585 11.179 C 8.585 13.057 9.767 14.37 11.531 14.37 Z" fill="rgb(0, 0, 0)"></path></svg>