<svg xmlns="http://www.w3.org/2000/svg" width="24" height="24"><path d="M 0 0 L 24 0 L 24 24 L 0 24 Z" fill="transparent"></path><g transform="translate(4 4)"><path d="M 8 16 C 12.376 16 16 12.368 16 8 C 16 3.623 12.368 0 7.992 0 C 3.624 0 0 3.623 0 8 C 0 12.368 3.632 16 8 16 Z M 8 14.667 C 6.231 14.673 4.532 13.973 3.282 12.721 C 2.031 11.469 1.333 9.769 1.341 8 C 1.341 4.298 4.29 1.334 7.992 1.334 C 9.763 1.327 11.463 2.027 12.717 3.278 C 13.97 4.529 14.672 6.229 14.667 8 C 14.673 9.77 13.973 11.47 12.721 12.721 C 11.47 13.973 9.77 14.673 8 14.666 Z" fill="rgb(0, 0, 0)"></path><path d="M 6 12.713 L 9.992 12.713 C 10.22 12.703 10.401 12.518 10.408 12.29 C 10.407 12.06 10.222 11.872 9.992 11.867 L 8.424 11.867 L 8.424 11.074 C 9.977 10.894 11.028 9.709 11.028 8.118 L 11.028 7.106 C 11.02 6.881 10.838 6.702 10.613 6.698 C 10.386 6.698 10.202 6.88 10.197 7.106 L 10.197 8.118 C 10.197 9.404 9.287 10.306 7.993 10.306 C 6.699 10.306 5.798 9.405 5.798 8.118 L 5.798 7.106 C 5.789 6.878 5.602 6.698 5.374 6.698 C 5.15 6.701 4.969 6.882 4.965 7.106 L 4.965 8.118 C 4.965 9.71 6.016 10.902 7.577 11.074 L 7.577 11.867 L 6 11.867 C 5.768 11.871 5.581 12.058 5.576 12.29 C 5.576 12.517 5.773 12.713 6 12.713 Z M 7.992 9.513 C 8.76 9.513 9.294 8.917 9.294 8.118 L 9.294 4.754 C 9.294 3.96 8.76 3.372 7.992 3.372 C 7.224 3.372 6.69 3.961 6.69 4.753 L 6.69 8.117 C 6.69 8.917 7.224 9.513 7.992 9.513 Z" fill="rgb(0, 0, 0)"></path></g></svg>