<svg xmlns="http://www.w3.org/2000/svg" width="24" height="24"><path d="M 0 2 L 24 2 L 24 26 L 0 26 Z" fill="transparent"></path><path d="M 12.843 19.613 C 13.252 19.613 13.587 19.445 13.987 19.069 L 20.574 12.849 C 20.892 12.549 21 12.232 21 11.956 C 21 11.671 20.9 11.364 20.574 11.054 L 13.987 4.893 C 13.545 4.475 13.269 4.3 12.86 4.3 C 12.276 4.3 11.858 4.759 11.858 5.318 L 11.858 8.475 L 11.616 8.475 C 5.613 8.475 3 12.323 3 18.492 C 3 19.21 3.408 19.611 3.86 19.611 C 4.211 19.611 4.595 19.527 4.887 18.993 C 6.34 16.263 8.385 15.444 11.616 15.444 L 11.858 15.444 L 11.858 18.634 C 11.858 19.194 12.276 19.611 12.843 19.611 Z M 13.319 17.817 C 13.252 17.817 13.202 17.767 13.202 17.692 L 13.202 14.46 C 13.202 14.268 13.119 14.185 12.927 14.185 L 11.808 14.185 C 7.843 14.185 5.313 15.562 4.327 17.658 C 4.302 17.717 4.286 17.741 4.244 17.741 C 4.21 17.741 4.185 17.717 4.185 17.65 C 4.353 13.709 6.072 9.735 11.808 9.735 L 12.927 9.735 C 13.119 9.735 13.202 9.652 13.202 9.46 L 13.202 6.145 C 13.202 6.078 13.252 6.028 13.328 6.028 C 13.378 6.028 13.427 6.061 13.47 6.094 L 19.414 11.798 C 19.473 11.856 19.497 11.906 19.497 11.956 C 19.497 12.006 19.481 12.048 19.414 12.115 L 13.461 17.741 C 13.428 17.787 13.376 17.815 13.319 17.817 Z" fill="rgb(0, 0, 0)"></path></svg>