<svg xmlns="http://www.w3.org/2000/svg" width="24" height="24"><path d="M 0 0 L 24 0 L 24 24 L 0 24 Z" fill="transparent"></path><path d="M 16.148 20.371 C 16.753 20.371 17.184 19.94 17.184 19.343 L 17.184 5.275 C 17.184 4.679 16.753 4.193 16.129 4.193 C 15.707 4.193 15.413 4.376 14.946 4.825 L 11.04 8.494 C 10.977 8.549 10.895 8.579 10.81 8.576 L 8.178 8.576 C 6.939 8.576 6.261 9.265 6.261 10.585 L 6.261 13.997 C 6.261 15.327 6.939 16.005 8.178 16.005 L 10.809 16.005 C 10.901 16.005 10.975 16.032 11.039 16.088 L 14.946 19.793 C 15.368 20.197 15.725 20.371 16.148 20.371 Z" fill="rgb(0, 0, 0)"></path></svg>