<svg xmlns="http://www.w3.org/2000/svg" width="24" height="24"><path d="M 0 0 L 24 0 L 24 24 L 0 24 Z" fill="transparent"></path><g transform="translate(4 4)"><path d="M 8 16 C 12.376 16 16 12.368 16 8 C 16 3.623 12.384 0 8.008 0 C 7.592 0 7.388 0.251 7.388 0.659 L 7.388 3.694 C 7.388 4.039 7.623 4.306 7.961 4.306 C 8.306 4.306 8.541 4.039 8.541 3.694 L 8.541 0.642 L 7.992 1.333 C 9.763 1.324 11.464 2.023 12.716 3.275 C 13.968 4.527 14.667 6.228 14.658 7.999 C 14.667 9.768 13.968 11.468 12.718 12.72 C 11.468 13.972 9.769 14.673 8 14.667 C 6.23 14.675 4.529 13.975 3.277 12.723 C 2.026 11.471 1.326 9.77 1.334 8 C 1.332 6.422 1.894 4.895 2.918 3.694 C 3.153 3.388 3.168 3.02 2.909 2.745 C 2.65 2.471 2.219 2.494 1.929 2.839 C 0.737 4.235 0 6.047 0 8 C 0 12.368 3.632 16 8 16 Z" fill="rgb(0, 0, 0)"></path><path d="M 9.255 9.129 C 9.874 8.478 9.749 7.607 9.004 7.09 L 4.854 4.188 C 4.463 3.914 4.055 4.33 4.33 4.714 L 7.224 8.863 C 7.749 9.608 8.619 9.741 9.255 9.129 Z" fill="rgb(0, 0, 0)"></path></g></svg>