<svg xmlns="http://www.w3.org/2000/svg" width="23" height="23"><path d="M 0 0 L 23 0 L 23 23 L 0 23 Z" fill="transparent"></path><path d="M 4.229 6.554 C 4.084 6.684 4.001 6.87 4.001 7.065 C 4.001 7.259 4.084 7.445 4.229 7.575 L 8.153 11.416 C 8.287 11.55 8.467 11.629 8.656 11.637 C 9.06 11.637 9.334 11.355 9.334 10.959 C 9.337 10.781 9.265 10.609 9.136 10.486 L 7.498 8.901 L 6.081 7.675 L 7.841 7.75 L 18.023 7.75 C 18.419 7.75 18.701 7.468 18.701 7.065 C 18.701 6.668 18.419 6.386 18.023 6.386 L 7.841 6.386 L 6.081 6.455 L 7.498 5.236 L 9.136 3.643 C 9.267 3.521 9.339 3.349 9.334 3.17 C 9.334 2.774 9.06 2.5 8.656 2.5 C 8.467 2.505 8.288 2.581 8.153 2.713 Z M 18.479 16.446 C 18.623 16.313 18.705 16.127 18.705 15.931 C 18.705 15.735 18.623 15.549 18.479 15.416 L 14.555 11.575 C 14.416 11.445 14.234 11.369 14.044 11.362 C 13.64 11.362 13.374 11.637 13.374 12.033 C 13.374 12.231 13.434 12.384 13.564 12.506 L 15.21 14.099 L 16.627 15.325 L 14.867 15.249 L 4.686 15.249 C 4.29 15.249 4 15.531 4 15.927 C 4 16.331 4.29 16.613 4.686 16.613 L 14.867 16.613 L 16.627 16.537 L 15.21 17.764 L 13.564 19.349 C 13.435 19.475 13.366 19.649 13.373 19.829 C 13.373 20.225 13.64 20.5 14.044 20.5 C 14.234 20.493 14.416 20.417 14.555 20.287 Z" fill="rgb(0, 0, 0)"></path></svg>