<svg xmlns="http://www.w3.org/2000/svg" width="24" height="24"><path d="M 0 0 L 24 0 L 24 24 L 0 24 Z" fill="transparent"></path><path d="M 5.397 18.065 L 18.603 18.065 C 20.206 18.065 21 17.272 21 15.7 L 21 11.181 C 21 10.494 20.908 10.15 20.565 9.73 L 17.93 6.471 C 17.038 5.371 16.641 5.036 15.282 5.036 L 8.718 5.036 C 7.359 5.036 6.969 5.371 6.076 6.471 L 3.435 9.73 C 3.099 10.15 3 10.494 3 11.181 L 3 15.7 C 3 17.28 3.802 18.066 5.397 18.066 Z M 5.412 16.837 C 4.648 16.837 4.229 16.433 4.229 15.638 L 4.229 11.838 L 9.068 11.838 C 9.252 13.265 10.45 14.319 12 14.319 C 13.549 14.319 14.748 13.257 14.931 11.838 L 19.771 11.838 L 19.771 15.64 C 19.771 16.434 19.343 16.838 18.587 16.838 Z M 12 13.189 C 10.923 13.189 10.229 12.249 10.229 11.364 L 10.229 11.341 C 10.229 11.02 10.038 10.722 9.641 10.722 L 4.61 10.722 C 4.358 10.722 4.305 10.502 4.435 10.341 L 7.267 6.769 C 7.64 6.295 8.069 6.104 8.626 6.104 L 15.375 6.104 C 15.93 6.104 16.359 6.295 16.733 6.769 L 19.573 10.341 C 19.695 10.502 19.649 10.723 19.397 10.723 L 14.359 10.723 C 13.962 10.723 13.778 11.02 13.778 11.341 L 13.778 11.364 C 13.778 12.25 13.083 13.188 12 13.188 Z" fill="rgb(0, 0, 0)"></path></svg>