<svg xmlns="http://www.w3.org/2000/svg" xmlns:xlink="http://www.w3.org/1999/xlink" width="24" height="24"><path d="M 0 2 L 24 2 L 24 26 L 0 26 Z" fill="transparent"></path><path d="M 11.965 20.93 C 16.869 20.93 20.93 16.86 20.93 11.965 C 20.93 7.06 16.86 3 11.956 3 C 7.061 3 3 7.06 3 11.965 C 3 16.86 7.07 20.93 11.965 20.93 Z M 11.965 19.436 C 9.982 19.443 8.079 18.658 6.677 17.255 C 5.276 15.852 4.493 13.948 4.503 11.965 C 4.503 7.816 7.808 4.495 11.956 4.495 C 13.941 4.487 15.846 5.271 17.25 6.673 C 18.655 8.076 19.441 9.98 19.436 11.965 C 19.443 13.949 18.659 15.853 17.256 17.256 C 15.853 18.658 13.949 19.443 11.965 19.435 Z" fill="rgb(0, 0, 0)"></path><g><defs><path d="M 12.001 14 C 13.97 14.02 15.5 12.371 15.5 10.21 C 15.5 8.179 13.959 6.5 12.001 6.5 C 10.041 6.5 8.49 8.179 8.5 10.21 C 8.511 12.372 10.041 13.979 12.001 14 Z" id="a1910z"></path><clipPath id="a1911z"><use xlink:href="#a1910z"></use></clipPath></defs><use xlink:href="#a1910z" fill="transparent" clip-path="url(#a1911z)" stroke-width="3" stroke="rgb(0, 0, 0)"></use></g><path d="M 6.5 17.5 C 6.5 17.5 9.25 16 12 16 C 14.75 16 17.5 17.5 17.5 17.5" fill="transparent" stroke-width="1.5" stroke="rgb(0, 0, 0)"></path></svg>